<svg xmlns="http://www.w3.org/2000/svg" width="10" height="10" fill="none" viewBox="0 0 10 10">
  <path fill="#fff" d="M3.833 6.167V3.833h2.334v2.334H3.833Zm.778-.778h.778V4.61H4.61v.778ZM3.833 8.5v-.778h-.777a.749.749 0 0 1-.55-.228.749.749 0 0 1-.228-.55v-.777H1.5v-.778h.778V4.61H1.5v-.778h.778v-.777c0-.214.076-.397.228-.55a.749.749 0 0 1 .55-.228h.777V1.5h.778v.778h.778V1.5h.778v.778h.777c.214 0 .397.076.55.228a.749.749 0 0 1 .228.55v.777H8.5v.778h-.778v.778H8.5v.778h-.778v.777a.749.749 0 0 1-.228.55.749.749 0 0 1-.55.228h-.777V8.5h-.778v-.778H4.61V8.5h-.778Zm3.111-1.556V3.056H3.056v3.888h3.888Z"/>
</svg>
