<svg xmlns="http://www.w3.org/2000/svg" width="10" height="10" fill="none" viewBox="0 0 10 10">
  <path fill="#fff" d="M3 5.5A2.007 2.007 0 0 0 3.675 7a.386.386 0 0 1-.008-.075V6.85c0-.178.033-.344.1-.5.066-.156.164-.297.291-.425L5 5l.942.925c.127.128.225.27.291.425.067.156.1.322.1.5v.075A.386.386 0 0 1 6.325 7 2.007 2.007 0 0 0 7 5.5a2.03 2.03 0 0 0-.6-1.45 1.333 1.333 0 0 1-1.62-.125 1.302 1.302 0 0 1-.438-.842 4.859 4.859 0 0 0-.575.571 3.864 3.864 0 0 0-.421.6c-.114.203-.2.41-.258.621A2.34 2.34 0 0 0 3 5.5Zm2 .433-.475.467a.66.66 0 0 0-.142.208.619.619 0 0 0 .146.7c.13.128.288.192.471.192s.34-.064.47-.192a.619.619 0 0 0 .197-.458.598.598 0 0 0-.05-.246.675.675 0 0 0-.142-.204L5 5.933Zm0-4.1v1.1c0 .19.065.348.196.475a.66.66 0 0 0 .479.192.632.632 0 0 0 .508-.25l.15-.183c.411.233.736.558.975.975.24.416.359.87.359 1.358 0 .744-.259 1.375-.775 1.892A2.574 2.574 0 0 1 5 8.167a2.574 2.574 0 0 1-1.892-.775A2.574 2.574 0 0 1 2.333 5.5c0-.717.24-1.397.721-2.042.48-.644 1.13-1.186 1.946-1.625Z"/>
</svg>
