<svg xmlns="http://www.w3.org/2000/svg" width="10" height="10" fill="none" viewBox="0 0 10 10">
  <path fill="#fff" d="M5 5.955c.332 0 .65-.135.884-.373.234-.239.366-.563.366-.9v-1.91c0-.337-.132-.66-.366-.9A1.239 1.239 0 0 0 5 1.5c-.332 0-.65.134-.884.373a1.285 1.285 0 0 0-.366.9v1.909c0 .337.132.661.366.9.235.238.552.373.884.373Zm-.625-3.182c0-.169.066-.33.183-.45a.62.62 0 0 1 .884 0c.117.12.183.281.183.45v1.909c0 .169-.066.33-.183.45a.62.62 0 0 1-.884 0 .642.642 0 0 1-.183-.45v-1.91ZM7.5 4.682a.321.321 0 0 0-.092-.225.31.31 0 0 0-.441 0 .321.321 0 0 0-.092.225c0 .506-.198.992-.55 1.35a1.854 1.854 0 0 1-2.651-.001 1.927 1.927 0 0 1-.549-1.35.321.321 0 0 0-.092-.224.31.31 0 0 0-.441 0 .321.321 0 0 0-.092.225c0 .62.223 1.218.626 1.682a2.48 2.48 0 0 0 1.562.841v.659h-.625a.31.31 0 0 0-.221.093.321.321 0 0 0 0 .45.31.31 0 0 0 .22.093h1.875a.31.31 0 0 0 .221-.093.321.321 0 0 0 0-.45.31.31 0 0 0-.22-.093h-.625v-.659a2.487 2.487 0 0 0 1.561-.841A2.572 2.572 0 0 0 7.5 4.682Z"/>
</svg>
