<svg xmlns="http://www.w3.org/2000/svg" width="10" height="10" fill="none" viewBox="0 0 10 10">
  <path fill="#fff" d="M4.62 5.333v-3.4h.76v3.4h-.76ZM5 8.068c-.42 0-.817-.081-1.189-.243A3.121 3.121 0 0 1 2.175 6.19 2.954 2.954 0 0 1 1.932 5a3.045 3.045 0 0 1 1.062-2.325l.535.532c-.263.22-.469.485-.617.798A2.298 2.298 0 0 0 2.691 5c0 .638.225 1.182.676 1.633.45.451.995.676 1.633.676.643 0 1.19-.225 1.637-.676A2.23 2.23 0 0 0 7.309 5a2.322 2.322 0 0 0-.844-1.8L7 2.664a3.066 3.066 0 0 1 .825 3.524 3.09 3.09 0 0 1-1.629 1.636A2.97 2.97 0 0 1 5 8.068Z"/>
</svg>
