<svg xmlns="http://www.w3.org/2000/svg" width="10" height="10" fill="none" viewBox="0 0 10 10">
  <mask id="a" width="8" height="8" x="1" y="1" maskUnits="userSpaceOnUse" style="mask-type:alpha">
    <path fill="#D9D9D9" d="M1 1h8v8H1z"/>
  </mask>
  <g mask="url(#a)">
    <path fill="#fff" d="M4.667 7.983a2.573 2.573 0 0 1-1.671-.879 2.598 2.598 0 0 1-.663-1.77A2.643 2.643 0 0 1 3.167 3.4l.475.475a1.89 1.89 0 0 0-.48.658 1.99 1.99 0 0 0-.162.8c0 .49.156.921.467 1.296.31.375.71.604 1.2.688v.666Zm.666 0v-.666c.484-.09.882-.32 1.196-.692.314-.372.471-.803.471-1.292 0-.555-.194-1.027-.583-1.416A1.929 1.929 0 0 0 5 3.333h-.025l.367.367-.467.467L3.708 3l1.167-1.167.467.467-.367.367H5c.744 0 1.375.258 1.892.775.516.516.775 1.147.775 1.891 0 .673-.221 1.26-.663 1.763a2.608 2.608 0 0 1-1.67.887Z"/>
  </g>
</svg>
