<?xml version="1.0" encoding="UTF-8" standalone="no"?>
<!-- Created with Inkscape (http://www.inkscape.org/) -->

<svg
   width="4.2333331mm"
   height="4.2333336mm"
   viewBox="0 0 4.2333331 4.2333336"
   version="1.1"
   id="svg1"
   xml:space="preserve"
   xmlns="http://www.w3.org/2000/svg"
   xmlns:svg="http://www.w3.org/2000/svg"><defs
     id="defs1" /><g
     id="layer1"
     transform="translate(-234.91516,-11.010027)"><g
       id="g26"
       transform="matrix(1.044619,0,0,1.162724,-25.77281,-3.9286008)"><path
         style="fill:#ffffff;stroke:#ffffff;stroke-width:0.167863;stroke-linecap:round;stroke-dasharray:none;stroke-opacity:0.992157"
         d="M 252.45607,15.499228 V 13.837561"
         id="path24" /><path
         style="fill:none;stroke:#ffffff;stroke-width:0.167863;stroke-linecap:round;stroke-linejoin:round;stroke-dasharray:none;stroke-opacity:0.992157;paint-order:normal"
         d="m 251.99799,14.827937 -1.01066,0.606398 a 0.18789671,0.18789671 29.518122 0 1 -0.28457,-0.16112 v -1.232038 a 0.18789671,0.18789671 150.48188 0 1 0.28457,-0.16112 l 1.01066,0.606398 a 0.19911682,0.19911682 90 0 1 0,0.341482 z"
         id="path25" /><path
         style="fill:none;stroke:#ffffff;stroke-width:0.167863;stroke-linecap:round;stroke-linejoin:round;stroke-dasharray:none;stroke-opacity:0.992157;paint-order:normal"
         d="m 251.99799,14.827937 -1.01066,0.606398 a 0.18789671,0.18789671 29.518122 0 1 -0.28457,-0.16112 v -1.232038 a 0.18789671,0.18789671 150.48188 0 1 0.28457,-0.16112 l 1.01066,0.606398 a 0.19911682,0.19911682 90 0 1 0,0.341482 z"
         id="path25-6"
         transform="matrix(1.0981273,0,0,1.007677,-29.178457,-0.10132481)" /></g></g></svg>
