<svg xmlns="http://www.w3.org/2000/svg" width="10" height="10" fill="none" viewBox="0 0 10 10">
  <path fill="#fff" d="M4.364 8.074a.631.631 0 0 1-.395-.14L2.362 6.648H1.324a.635.635 0 0 1-.634-.634V3.986c0-.35.284-.634.634-.634h1.038l1.607-1.286a.63.63 0 0 1 .671-.077.63.63 0 0 1 .36.572V7.44a.637.637 0 0 1-.636.635ZM1.38 5.96h1.104c.078 0 .154.026.215.075l1.612 1.29V2.676l-1.612 1.29a.345.345 0 0 1-.215.075H1.379V5.96Zm5.449 1.213a.344.344 0 0 1-.244-.588c.417-.417.656-.995.656-1.585s-.239-1.168-.656-1.585a.345.345 0 0 1 .487-.487c.546.545.86 1.3.86 2.072a2.95 2.95 0 0 1-.86 2.072.342.342 0 0 1-.243.101Z"/>
  <path fill="#fff" d="M7.804 8.149a.344.344 0 0 1-.244-.589A3.647 3.647 0 0 0 8.62 5c0-.953-.386-1.886-1.06-2.56a.345.345 0 0 1 .488-.488A4.34 4.34 0 0 1 9.31 5a4.34 4.34 0 0 1-1.262 3.048.344.344 0 0 1-.244.101ZM5.853 6.198a.345.345 0 0 1-.243-.588.869.869 0 0 0 .252-.61.869.869 0 0 0-.252-.61.346.346 0 0 1 .488-.488c.288.29.454.69.454 1.098 0 .408-.166.808-.454 1.097a.345.345 0 0 1-.245.101Z"/>
</svg>
