<svg xmlns="http://www.w3.org/2000/svg" width="10" height="10" fill="none" viewBox="0 0 10 10">
  <path fill="#fff" d="M9.428 3.646c-2.491-2.195-6.366-2.194-8.856 0a.206.206 0 0 0-.005.307l.481.455a.237.237 0 0 0 .315.006c2.052-1.79 5.222-1.791 7.274 0 .09.078.229.076.315-.006l.481-.455a.206.206 0 0 0-.005-.307ZM5 6.286c-.497 0-.9.383-.9.857 0 .473.403.857.9.857s.9-.384.9-.857c0-.474-.403-.857-.9-.857Zm2.85-1.12c-1.62-1.365-4.081-1.363-5.7 0a.205.205 0 0 0-.008.31l.484.455c.085.08.22.085.31.011 1.18-.972 2.95-.97 4.128 0 .09.074.225.069.31-.01l.484-.456a.205.205 0 0 0-.008-.31Z"/>
</svg>
