<?xml version="1.0" encoding="UTF-8" standalone="no"?>
<!-- Created with Inkscape (http://www.inkscape.org/) -->

<svg
   width="4.2333331mm"
   height="4.2333336mm"
   viewBox="0 0 4.2333331 4.2333336"
   version="1.1"
   id="svg1"
   xml:space="preserve"
   xmlns="http://www.w3.org/2000/svg"
   xmlns:svg="http://www.w3.org/2000/svg"><defs
     id="defs1" /><g
     id="layer1"
     transform="translate(-220.00001,4.7542888)"
     style="display:inline"><g
       id="layer2"
       transform="matrix(0.26458333,0,0,0.26458334,200.15315,-11.031037)"><g
         id="g15-4-4"
         transform="translate(49.536743)"><path
           style="fill:none;stroke:#ffffff;stroke-width:0.7;stroke-linecap:round;stroke-linejoin:round;stroke-dasharray:none;stroke-opacity:1"
           d="m 2.5,33.723148 v -4 a 1.0000003,1.0000003 135 0 1 1.0000003,-1 H 11.5 a 0.99999965,0.99999965 45 0 1 1,1 v 1 h 1 v 2 h -1 v 1 a 0.99999965,0.99999965 135 0 1 -1,1 H 3.5000003 a 1.0000003,1.0000003 45 0 1 -1.0000003,-1 z"
           id="path13-5-0-9"
           transform="translate(25.5)" /><path
           style="fill:#008000;fill-opacity:1;stroke:#008000;stroke-width:0.563731;stroke-linecap:round;stroke-linejoin:round;stroke-dasharray:none;stroke-opacity:1"
           d="m 33.5,31.723148 -0.01493,1.651786 -3.122762,-1.659403 2.353264,0.0058 0.01611,-1.78298 3.121575,1.7906 z"
           id="path15" /></g></g></g></svg>
