<?xml version="1.0" encoding="UTF-8" standalone="no"?>
<!-- Created with Inkscape (http://www.inkscape.org/) -->

<svg
   width="4.2333331mm"
   height="4.2333336mm"
   viewBox="0 0 4.2333331 4.2333336"
   version="1.1"
   id="svg1"
   xml:space="preserve"
   xmlns="http://www.w3.org/2000/svg"
   xmlns:svg="http://www.w3.org/2000/svg"><defs
     id="defs1" /><g
     id="layer1"
     transform="translate(-240.32523,4.7542895)"
     style="display:inline"><g
       id="g15-4-8"
       transform="matrix(0.26458333,0,0,0.26458333,233.44607,-11.031038)"
       style="display:inline"><path
         style="fill:none;stroke:#ffffff;stroke-width:0.7;stroke-linecap:round;stroke-linejoin:round;stroke-dasharray:none;stroke-opacity:1"
         d="m 2.5,33.723148 v -4 a 1.0000003,1.0000003 135 0 1 1.0000003,-1 H 11.5 a 0.99999965,0.99999965 45 0 1 1,1 v 1 h 1 v 2 h -1 v 1 a 0.99999965,0.99999965 135 0 1 -1,1 H 3.5000003 a 1.0000003,1.0000003 45 0 1 -1.0000003,-1 z"
         id="path13-5-0-7"
         transform="translate(26)" /><rect
         style="fill:#aa0000;fill-opacity:1;stroke:#aa0000;stroke-width:0.535696;stroke-linecap:round;stroke-linejoin:round;stroke-dasharray:none;stroke-opacity:1"
         id="rect13-93-7-0-0-5-8-1"
         width="1.117841"
         height="3.1434934"
         x="29.928253"
         y="30.151402"
         ry="0.52391559" /><g
         id="g37"
         transform="translate(0.87013359,-0.11468989)"><path
           style="opacity:1;fill:#ffffff;fill-opacity:1;stroke:#ffffff;stroke-width:0.658005;stroke-linecap:round;stroke-linejoin:round;stroke-dasharray:none;stroke-opacity:0.992157;paint-order:normal"
           d="M 31.663565,32.14091 V 30.511761"
           id="path36" /><ellipse
           style="opacity:1;fill:#ffffff;fill-opacity:1;stroke:#ffffff;stroke-width:0.441082;stroke-linecap:round;stroke-linejoin:round;stroke-dasharray:none;stroke-opacity:0.992157;paint-order:normal"
           id="path37"
           cx="31.663565"
           cy="33.142452"
           rx="0.12908065"
           ry="0.12992595" /></g></g></g></svg>
