<?xml version="1.0" encoding="UTF-8" standalone="no"?>
<!-- Created with Inkscape (http://www.inkscape.org/) -->

<svg
   width="4.2333331mm"
   height="4.2333336mm"
   viewBox="0 0 4.2333331 4.2333336"
   version="1.1"
   id="svg1"
   xml:space="preserve"
   xmlns="http://www.w3.org/2000/svg"
   xmlns:svg="http://www.w3.org/2000/svg"><defs
     id="defs1" /><g
     id="g11"
     transform="matrix(0.68830395,-0.25656667,0.25920721,0.68129221,1.9848357,-4.2244929)"
     style="fill:none;fill-opacity:1;stroke:#ffffff;stroke-width:0.252823;stroke-dasharray:none;stroke-opacity:1"><path
       d="m -2.0412064,9.4578712 c -0.1792321,5.74e-5 -0.3576817,-0.032081 -0.5266777,-0.095546 -0.773615,-0.2914287 -1.1644553,-1.1548604 -0.8729249,-1.9284371 0.050048,-0.1320184 0.1183378,-0.2558096 0.2024977,-0.3679327 0.099338,-0.1323447 0.068253,-0.2016268 -0.086558,-0.1431426 -0.3964973,0.1497876 -0.7160219,0.4632667 -0.8699914,0.8682047 -0.2915304,0.7735766 0.09931,1.6370083 0.8729248,1.9284371 0.4437853,0.1664779 0.9351854,0.1115744 1.3277336,-0.1376365 0.1107954,-0.070339 0.084234,-0.1239887 -0.047004,-0.1239467 z"
       style="fill:none;fill-opacity:1;stroke:#ffffff;stroke-width:0.254147;stroke-dasharray:none;stroke-opacity:1"
       id="path18"
       transform="matrix(0.95614387,0.25428468,-0.25919098,0.96606427,1.9330502,0.88580818)" /></g></svg>
