<?xml version="1.0" encoding="UTF-8" standalone="no"?>
<!-- Created with Inkscape (http://www.inkscape.org/) -->

<svg
   width="4.2333331mm"
   height="4.2333336mm"
   viewBox="0 0 4.2333331 4.2333336"
   version="1.1"
   id="svg1"
   xml:space="preserve"
   xmlns="http://www.w3.org/2000/svg"
   xmlns:svg="http://www.w3.org/2000/svg"><defs
     id="defs1" /><g
     id="layer1"
     transform="translate(-234.91516,-0.74498026)"
     style="display:inline"><g
       id="g34"
       transform="matrix(0.26458333,0,0,0.26458333,224.94057,0.74498144)"><path
         style="fill:none;stroke:#ffffff;stroke-width:0.7;stroke-linecap:butt;stroke-linejoin:round;stroke-dasharray:none;stroke-opacity:1"
         d="m 45.724228,4.0684464 v 7.8631076 l -3,-2.2687868 h -0.5 -1.5 V 6.2595876 h 2 z"
         id="path2-1-9-7" /><path
         style="fill:none;stroke:#4d4d4d;stroke-width:0.7;stroke-linecap:round;stroke-linejoin:round;stroke-dasharray:none;stroke-opacity:1"
         id="path8-5-3-4"
         d="m 46.724228,6.2679492 a 2,2 0 0 1 1,1.7320508 2,2 0 0 1 -1,1.7320509" /><path
         style="fill:none;stroke:#4d4d4d;stroke-width:0.7;stroke-linecap:round;stroke-linejoin:round;stroke-dasharray:none;stroke-opacity:1"
         id="path9-5-7-4"
         d="m 47.699228,5.4019239 a 3,3 0 0 1 1.5,2.5980761 3,3 0 0 1 -1.5,2.598076" /><path
         style="fill:none;stroke:#4d4d4d;stroke-width:0.6;stroke-linecap:round;stroke-linejoin:round;stroke-dasharray:none;stroke-opacity:1"
         id="path10-4-4-3"
         d="m 48.724228,4.5358985 a 4,4 0 0 1 2,3.4641015 4,4 0 0 1 -2,3.464102" /></g></g></svg>
