<?xml version="1.0" encoding="UTF-8" standalone="no"?>
<!-- Created with Inkscape (http://www.inkscape.org/) -->

<svg
   width="4.2333331mm"
   height="4.2333336mm"
   viewBox="0 0 4.2333331 4.2333336"
   version="1.1"
   id="svg1"
   xml:space="preserve"
   xmlns="http://www.w3.org/2000/svg"
   xmlns:svg="http://www.w3.org/2000/svg"><defs
     id="defs1" /><g
     id="layer1"
     transform="translate(-224.93396,-0.74498127)"
     style="display:inline"><g
       id="g31"
       transform="matrix(0.26458333,0,0,0.26458333,224.94057,0.74498144)"><path
         style="fill:none;stroke:#ffffff;stroke-width:0.7;stroke-linecap:butt;stroke-linejoin:round;stroke-dasharray:none;stroke-opacity:1"
         d="M 8,4.0684464 V 11.931554 L 5,9.6627672 H 4.5 3 V 6.2595876 h 2 z"
         id="path2-1" /><path
         style="fill:none;stroke:#ffffff;stroke-width:0.7;stroke-linecap:round;stroke-linejoin:round;stroke-dasharray:none;stroke-opacity:1"
         id="path8-5"
         d="M 9.0000001,6.2679492 A 2,2 0 0 1 10,8 2,2 0 0 1 8.9999999,9.7320509" /><path
         style="fill:none;stroke:#ffffff;stroke-width:0.7;stroke-linecap:round;stroke-linejoin:round;stroke-dasharray:none;stroke-opacity:1"
         id="path9-5"
         d="M 9.9750005,5.4019239 A 3,3 0 0 1 11.475,8 3,3 0 0 1 9.9750003,10.598076" /><path
         style="fill:none;stroke:#4d4d4d;stroke-width:0.6;stroke-linecap:round;stroke-linejoin:round;stroke-dasharray:none;stroke-opacity:1"
         id="path10-4"
         d="M 11,4.5358985 A 4,4 0 0 1 13,8 4,4 0 0 1 11,11.464102" /></g></g></svg>
