<?xml version="1.0" encoding="UTF-8" standalone="no"?>
<!-- Created with Inkscape (http://www.inkscape.org/) -->

<svg
   width="15.999999"
   height="16"
   viewBox="0 0 4.2333331 4.2333334"
   version="1.1"
   id="svg1"
   xml:space="preserve"
   xmlns="http://www.w3.org/2000/svg"
   xmlns:svg="http://www.w3.org/2000/svg"><defs
     id="defs1" /><g
     id="layer1"
     transform="translate(-240.01136,-0.74498156)"
     style="display:inline"><g
       id="g35"
       transform="translate(224.6267,0.74498144)"
       style="stroke-width:0.264583;stroke-dasharray:none"><g
         id="g33"
         transform="matrix(0.26458333,0,0,0.26458333,9.7964872,0.44504263)"
         style="stroke-width:1;stroke-dasharray:none"><path
           style="fill:none;stroke:#ffffff;stroke-width:1;stroke-linecap:butt;stroke-linejoin:round;stroke-dasharray:none;stroke-opacity:1"
           d="m 29.145645,2.3863955 v 7.8631075 l -3,-2.2687865 h -0.5 -1.5 v -3.40318 h 2 z"
           id="path2-1-9-7-6" /><path
           style="fill:none;stroke:#656565;stroke-width:1;stroke-linecap:round;stroke-linejoin:round;stroke-dasharray:none;stroke-opacity:1"
           id="path8-5-3-4-8"
           d="m 30.145645,4.5858985 a 2,2 0 0 1 1,1.732051 2,2 0 0 1 -1,1.732051" /><path
           style="fill:none;stroke:#656565;stroke-width:1;stroke-linecap:round;stroke-linejoin:round;stroke-dasharray:none;stroke-opacity:1"
           id="path9-5-7-4-8"
           d="m 31.120646,3.7198735 a 3,3 0 0 1 1.499999,2.598076 3,3 0 0 1 -1.5,2.598076" /><path
           style="fill:none;stroke:#656565;stroke-width:1;stroke-linecap:round;stroke-linejoin:round;stroke-dasharray:none;stroke-opacity:1"
           id="path10-4-4-3-4"
           d="m 32.145645,2.8538475 a 4,4 0 0 1 2,3.464102 4,4 0 0 1 -2,3.464102" /></g><g
         id="g22-9"
         transform="matrix(1.1753073,0,0,1.1437493,-3.1706583,-13.448509)"
         style="stroke:#9a0000;stroke-width:0.228203;stroke-dasharray:none;stroke-opacity:1"><path
           style="fill:none;fill-opacity:1;stroke:#9a0000;stroke-width:0.228203;stroke-linecap:round;stroke-linejoin:round;stroke-dasharray:none;stroke-opacity:1"
           d="m 18.0036,13.824587 0.411742,-0.431364"
           id="path19-4-20" /><path
           style="fill:none;fill-opacity:1;stroke:#9a0000;stroke-width:0.228203;stroke-linecap:round;stroke-linejoin:round;stroke-dasharray:none;stroke-opacity:1"
           d="M 18.402133,13.824587 18.013172,13.393223"
           id="path20-7-68" /></g></g></g></svg>
