<?xml version="1.0" encoding="UTF-8" standalone="no"?>
<!-- Created with Inkscape (http://www.inkscape.org/) -->

<svg
   width="4.2333331mm"
   height="4.2333336mm"
   viewBox="0 0 4.2333331 4.2333336"
   version="1.1"
   id="svg1"
   xml:space="preserve"
   xmlns="http://www.w3.org/2000/svg"
   xmlns:svg="http://www.w3.org/2000/svg"><defs
     id="defs1" /><g
     id="layer1"
     transform="translate(-230.01443,-23.154728)"
     style="display:inline"><g
       id="g23"
       transform="matrix(0.99931523,0,0,1.0138676,0.46028617,0.17616002)"><path
         style="fill:none;stroke:#ffffff;stroke-width:0.185;stroke-linecap:round;stroke-linejoin:round;stroke-dasharray:none;stroke-opacity:1"
         d="m 231.72144,23.718225 c 0,0 -0.77462,0.589874 -0.77673,1.140105 -0.002,0.550231 0.43131,0.932313 0.871,0.927361 0.43969,-0.005 1.02248,-0.298083 0.87657,-1.05954 -0.0289,-0.151023 -0.23137,-0.480432 -0.36148,-0.563229 -0.17397,0.206167 -0.37123,0.161558 -0.44174,0.117838 -0.16499,-0.102304 -0.17334,-0.352437 -0.16762,-0.562535 z"
         id="path22" /><path
         style="fill:none;fill-opacity:0.532238;stroke:#ffffff;stroke-width:0.185;stroke-linecap:round;stroke-linejoin:round;stroke-dasharray:none;stroke-opacity:1"
         d="m 231.81571,24.818648 c -0.097,0.09616 -0.39762,0.325698 -0.37481,0.544995 0.018,0.173284 0.20424,0.358396 0.37845,0.360482 0.1677,0.002 0.35177,-0.171778 0.37253,-0.338207 0.0281,-0.225142 -0.18575,-0.416553 -0.37617,-0.56727 z"
         id="path23" /></g></g></svg>
