<?xml version="1.0" encoding="UTF-8" standalone="no"?>
<!-- Created with Inkscape (http://www.inkscape.org/) -->

<svg
   width="4.2333331mm"
   height="4.2333336mm"
   viewBox="0 0 4.2333331 4.2333336"
   version="1.1"
   id="svg1"
   xml:space="preserve"
   xmlns="http://www.w3.org/2000/svg"
   xmlns:svg="http://www.w3.org/2000/svg"><defs
     id="defs1" /><g
     id="layer1"
     transform="translate(-220.00001,-6.1083903)"
     style="display:inline"><g
       id="g20"
       style="stroke-width:0.99905;stroke-dasharray:none"
       transform="matrix(0.36334523,0,0,0.36334523,212.48944,5.1080827)"><circle
         style="fill:#ffffff;stroke-width:0.99905;stroke-dasharray:none;stroke-opacity:0.992157"
         id="path11"
         cx="26.496103"
         cy="10.615727"
         r="0.79412222" /><path
         style="fill:none;stroke:#ffffff;stroke-width:0.509158;stroke-linecap:round;stroke-dasharray:none;stroke-opacity:1"
         id="path12-5"
         d="m 25.029564,9.4548448 a 1.8887208,1.8887208 0 0 1 1.456523,-0.7196809 1.8887208,1.8887208 0 0 1 1.476556,0.6776294" /><path
         style="fill:none;stroke:#ffffff;stroke-width:0.509158;stroke-linecap:round;stroke-dasharray:none;stroke-opacity:1"
         id="path12-5-8"
         d="m 24.085968,8.5514575 a 3.103956,3.103956 0 0 1 2.393675,-1.1827358 3.103956,3.103956 0 0 1 2.426598,1.1136277" /><path
         style="fill:none;stroke:#ffffff;stroke-width:0.509158;stroke-linecap:round;stroke-dasharray:none;stroke-opacity:1"
         id="path12-5-8-6"
         d="m 23.143774,7.6473822 a 4.3173842,4.3173842 0 0 1 3.329433,-1.6451023 4.3173842,4.3173842 0 0 1 3.375227,1.5489778" /></g></g></svg>
